<svg xmlns="http://www.w3.org/2000/svg" viewBox="0 0 72 48">
  <rect width="72" height="48" rx="3" fill="#171211"/>
  <path fill="#f29a3c" d="M13 18 19 4l7 10 7-9 5 13-9 6H18l-5-6Z"/>
  <path fill="#9f352c" d="m10 24-9-8v16l9-8Z"/>
  <path fill="#df4d32" d="M10 17h36l12 7-12 7H10l7-7-7-7Z"/>
  <path fill="#4c2725" d="M22 20h22l7 4-7 4H22l4-4-4-4Z"/>
  <path fill="#744037" d="M51 24h19l-7 7H46l5-7Z"/>
  <rect x="42" y="20" width="4" height="4" fill="#f6ead5"/>
  <path d="M16 17v14M31 17v14M55 22v4" stroke="#171211" stroke-width="1.5"/>
</svg>
